<?xml version="1.0" encoding="utf-8"?>
<svg version="1.1" xmlns:xlink="http://www.w3.org/1999/xlink" width="32px" height="32px" xmlns="http://www.w3.org/2000/svg">
  <g transform="matrix(1 0 0 1 -66 -10941 )">
    <path d="M 23.8541666666667 19.46875  C 23.9236111111111 19.53125  23.9583333333333 19.6111111111111  23.9583333333333 19.7083333333333  L 23.9583333333333 21.9791666666667  C 23.9583333333333 22.6736111111111  23.7048611111111 23.2916666666667  23.1979166666667 23.8333333333333  C 22.6909722222222 24.375  22.0381944444444 24.7951388888889  21.2395833333333 25.09375  C 20.4409722222222 25.3923611111111  19.6215277777778 25.6180555555556  18.78125 25.7708333333333  C 17.9409722222222 25.9236111111111  17.125 26  16.3333333333333 26  C 13.4861111111111 26  11.1076388888889 25.0347222222222  9.19791666666667 23.1041666666667  C 7.28819444444445 21.1736111111111  6.33333333333333 18.7708333333333  6.33333333333333 15.8958333333333  C 6.33333333333333 13.0763888888889  7.27777777777778 10.7222222222222  9.16666666666667 8.83333333333333  C 11.0555555555556 6.94444444444444  13.4097222222222 6  16.2291666666667 6  C 16.7013888888889 6  17.2256944444444 6.03125  17.8020833333333 6.09375  C 18.3784722222222 6.15625  19.0243055555556 6.28125  19.7395833333333 6.46875  C 20.4548611111111 6.65625  21.0972222222222 6.89236111111111  21.6666666666667 7.17708333333333  C 22.2361111111111 7.46180555555555  22.7152777777778 7.85416666666667  23.1041666666667 8.35416666666667  C 23.4930555555556 8.85416666666667  23.6875 9.41666666666667  23.6875 10.0416666666667  L 23.6875 12.3125  C 23.6875 12.5347222222222  23.5763888888889 12.6458333333333  23.3541666666667 12.6458333333333  L 20.8958333333333 12.6458333333333  C 20.6736111111111 12.6458333333333  20.5625 12.5347222222222  20.5625 12.3125  L 20.5625 10.8541666666667  C 20.5625 10.2569444444444  20.1076388888889 9.78819444444444  19.1979166666667 9.44791666666667  C 18.2881944444444 9.10763888888889  17.3333333333333 8.9375  16.3333333333333 8.9375  C 14.3888888888889 8.9375  12.8020833333333 9.57291666666667  11.5729166666667 10.84375  C 10.34375 12.1145833333333  9.72916666666667 13.7638888888889  9.72916666666667 15.7916666666667  C 9.72916666666667 17.8888888888889  10.3645833333333 19.6215277777778  11.6354166666667 20.9895833333333  C 12.90625 22.3576388888889  14.5277777777778 23.0416666666667  16.5 23.0416666666667  C 17.4444444444444 23.0416666666667  18.4027777777778 22.875  19.375 22.5416666666667  C 20.3472222222222 22.2083333333333  20.8333333333333 21.75  20.8333333333333 21.1666666666667  L 20.8333333333333 19.7083333333333  C 20.8333333333333 19.6111111111111  20.8645833333333 19.53125  20.9270833333333 19.46875  C 20.9895833333333 19.40625  21.0625 19.375  21.1458333333333 19.375  L 23.625 19.375  C 23.7083333333333 19.375  23.7847222222222 19.40625  23.8541666666667 19.46875  Z M 21.1770833333333 3.72916666666667  C 19.53125 3.02083333333333  17.8055555555556 2.66666666666667  16 2.66666666666667  C 14.1944444444444 2.66666666666667  12.46875 3.02083333333333  10.8229166666667 3.72916666666667  C 9.17708333333333 4.4375  7.76041666666667 5.38541666666667  6.57291666666667 6.57291666666667  C 5.38541666666667 7.76041666666667  4.4375 9.17708333333333  3.72916666666667 10.8229166666667  C 3.02083333333333 12.46875  2.66666666666667 14.1944444444444  2.66666666666667 16  C 2.66666666666667 17.8055555555556  3.02083333333333 19.53125  3.72916666666667 21.1770833333333  C 4.4375 22.8229166666667  5.38541666666667 24.2395833333333  6.57291666666667 25.4270833333333  C 7.76041666666667 26.6145833333333  9.17708333333333 27.5625  10.8229166666667 28.2708333333333  C 12.46875 28.9791666666667  14.1944444444444 29.3333333333333  16 29.3333333333333  C 17.8055555555556 29.3333333333333  19.53125 28.9791666666667  21.1770833333333 28.2708333333333  C 22.8229166666667 27.5625  24.2395833333333 26.6145833333333  25.4270833333333 25.4270833333333  C 26.6145833333333 24.2395833333333  27.5625 22.8229166666667  28.2708333333333 21.1770833333333  C 28.9791666666667 19.53125  29.3333333333333 17.8055555555556  29.3333333333333 16  C 29.3333333333333 14.1944444444444  28.9791666666667 12.46875  28.2708333333333 10.8229166666667  C 27.5625 9.17708333333333  26.6145833333333 7.76041666666667  25.4270833333333 6.57291666666667  C 24.2395833333333 5.38541666666667  22.8229166666667 4.4375  21.1770833333333 3.72916666666667  Z M 29.8541666666667 7.96875  C 31.2847222222222 10.4201388888889  32 13.0972222222222  32 16  C 32 18.9027777777778  31.2847222222222 21.5798611111111  29.8541666666667 24.03125  C 28.4236111111111 26.4826388888889  26.4826388888889 28.4236111111111  24.03125 29.8541666666667  C 21.5798611111111 31.2847222222222  18.9027777777778 32  16 32  C 13.0972222222222 32  10.4201388888889 31.2847222222222  7.96875 29.8541666666667  C 5.51736111111111 28.4236111111111  3.57638888888889 26.4826388888889  2.14583333333333 24.03125  C 0.715277777777778 21.5798611111111  0 18.9027777777778  0 16  C 0 13.0972222222222  0.715277777777778 10.4201388888889  2.14583333333333 7.96875  C 3.57638888888889 5.51736111111111  5.51736111111111 3.57638888888889  7.96875 2.14583333333333  C 10.4201388888889 0.715277777777775  13.0972222222222 0  16 0  C 18.9027777777778 0  21.5798611111111 0.715277777777775  24.03125 2.14583333333333  C 26.4826388888889 3.57638888888889  28.4236111111111 5.51736111111111  29.8541666666667 7.96875  Z " fill-rule="nonzero" fill="#000000" stroke="none" transform="matrix(1 0 0 1 66 10941 )" />
  </g>
</svg>