<?xml version="1.0" encoding="utf-8"?>
<svg version="1.1" xmlns:xlink="http://www.w3.org/1999/xlink" width="16px" height="16px" xmlns="http://www.w3.org/2000/svg">
  <g transform="matrix(1 0 0 1 -436 -5078 )">
    <path d="M 11.9270833333333 9.734375  C 11.9618055555556 9.765625  11.9791666666667 9.80555555555555  11.9791666666667 9.85416666666667  L 11.9791666666667 10.9895833333333  C 11.9791666666667 11.3368055555556  11.8524305555556 11.6458333333333  11.5989583333333 11.9166666666667  C 11.3454861111111 12.1875  11.0190972222222 12.3975694444444  10.6197916666667 12.546875  C 10.2204861111111 12.6961805555556  9.81076388888889 12.8090277777778  9.390625 12.8854166666667  C 8.97048611111111 12.9618055555556  8.5625 13  8.16666666666667 13  C 6.74305555555556 13  5.55381944444445 12.5173611111111  4.59895833333333 11.5520833333333  C 3.64409722222222 10.5868055555556  3.16666666666667 9.38541666666667  3.16666666666667 7.94791666666667  C 3.16666666666667 6.53819444444444  3.63888888888889 5.36111111111111  4.58333333333333 4.41666666666667  C 5.52777777777778 3.47222222222222  6.70486111111111 3  8.11458333333333 3  C 8.35069444444444 3  8.61284722222222 3.015625  8.90104166666667 3.046875  C 9.18923611111111 3.078125  9.51215277777778 3.140625  9.86979166666667 3.234375  C 10.2274305555556 3.328125  10.5486111111111 3.44618055555556  10.8333333333333 3.58854166666667  C 11.1180555555556 3.73090277777778  11.3576388888889 3.92708333333333  11.5520833333333 4.17708333333333  C 11.7465277777778 4.42708333333333  11.84375 4.70833333333333  11.84375 5.02083333333333  L 11.84375 6.15625  C 11.84375 6.26736111111111  11.7881944444444 6.32291666666667  11.6770833333333 6.32291666666667  L 10.4479166666667 6.32291666666667  C 10.3368055555556 6.32291666666667  10.28125 6.26736111111111  10.28125 6.15625  L 10.28125 5.42708333333333  C 10.28125 5.12847222222222  10.0538194444444 4.89409722222222  9.59895833333333 4.72395833333333  C 9.14409722222222 4.55381944444444  8.66666666666667 4.46875  8.16666666666667 4.46875  C 7.19444444444445 4.46875  6.40104166666667 4.78645833333333  5.78645833333333 5.421875  C 5.171875 6.05729166666667  4.86458333333333 6.88194444444444  4.86458333333333 7.89583333333333  C 4.86458333333333 8.94444444444444  5.18229166666667 9.81076388888889  5.81770833333333 10.4947916666667  C 6.453125 11.1788194444444  7.26388888888889 11.5208333333333  8.25 11.5208333333333  C 8.72222222222222 11.5208333333333  9.20138888888889 11.4375  9.6875 11.2708333333333  C 10.1736111111111 11.1041666666667  10.4166666666667 10.875  10.4166666666667 10.5833333333333  L 10.4166666666667 9.85416666666667  C 10.4166666666667 9.80555555555555  10.4322916666667 9.765625  10.4635416666667 9.734375  C 10.4947916666667 9.703125  10.53125 9.6875  10.5729166666667 9.6875  L 11.8125 9.6875  C 11.8541666666667 9.6875  11.8923611111111 9.703125  11.9270833333333 9.734375  Z M 10.5885416666667 1.86458333333333  C 9.765625 1.51041666666667  8.90277777777778 1.33333333333333  8 1.33333333333333  C 7.09722222222222 1.33333333333333  6.234375 1.51041666666667  5.41145833333333 1.86458333333333  C 4.58854166666667 2.21875  3.88020833333333 2.69270833333333  3.28645833333333 3.28645833333333  C 2.69270833333333 3.88020833333333  2.21875 4.58854166666667  1.86458333333333 5.41145833333333  C 1.51041666666667 6.234375  1.33333333333333 7.09722222222222  1.33333333333333 8  C 1.33333333333333 8.90277777777778  1.51041666666667 9.765625  1.86458333333333 10.5885416666667  C 2.21875 11.4114583333333  2.69270833333333 12.1197916666667  3.28645833333333 12.7135416666667  C 3.88020833333333 13.3072916666667  4.58854166666667 13.78125  5.41145833333333 14.1354166666667  C 6.234375 14.4895833333333  7.09722222222222 14.6666666666667  8 14.6666666666667  C 8.90277777777778 14.6666666666667  9.765625 14.4895833333333  10.5885416666667 14.1354166666667  C 11.4114583333333 13.78125  12.1197916666667 13.3072916666667  12.7135416666667 12.7135416666667  C 13.3072916666667 12.1197916666667  13.78125 11.4114583333333  14.1354166666667 10.5885416666667  C 14.4895833333333 9.765625  14.6666666666667 8.90277777777778  14.6666666666667 8  C 14.6666666666667 7.09722222222222  14.4895833333333 6.234375  14.1354166666667 5.41145833333333  C 13.78125 4.58854166666667  13.3072916666667 3.88020833333333  12.7135416666667 3.28645833333333  C 12.1197916666667 2.69270833333333  11.4114583333333 2.21875  10.5885416666667 1.86458333333333  Z M 14.9270833333333 3.984375  C 15.6423611111111 5.21006944444444  16 6.54861111111111  16 8  C 16 9.45138888888889  15.6423611111111 10.7899305555556  14.9270833333333 12.015625  C 14.2118055555556 13.2413194444444  13.2413194444444 14.2118055555556  12.015625 14.9270833333333  C 10.7899305555556 15.6423611111111  9.45138888888889 16  8 16  C 6.54861111111111 16  5.21006944444444 15.6423611111111  3.984375 14.9270833333333  C 2.75868055555556 14.2118055555556  1.78819444444444 13.2413194444444  1.07291666666667 12.015625  C 0.357638888888889 10.7899305555556  0 9.45138888888889  0 8  C 0 6.54861111111111  0.357638888888889 5.21006944444444  1.07291666666667 3.984375  C 1.78819444444444 2.75868055555556  2.75868055555556 1.78819444444444  3.984375 1.07291666666667  C 5.21006944444444 0.357638888888888  6.54861111111111 0  8 0  C 9.45138888888889 0  10.7899305555556 0.357638888888888  12.015625 1.07291666666667  C 13.2413194444444 1.78819444444444  14.2118055555556 2.75868055555556  14.9270833333333 3.984375  Z " fill-rule="nonzero" fill="#000000" stroke="none" transform="matrix(1 0 0 1 436 5078 )" />
  </g>
</svg>