<?xml version="1.0" encoding="utf-8"?>
<svg version="1.1" xmlns:xlink="http://www.w3.org/1999/xlink" width="12px" height="12px" xmlns="http://www.w3.org/2000/svg">
  <g transform="matrix(1 0 0 1 -80 -3105 )">
    <path d="M 8.9453125 7.30078125  C 8.97135416666667 7.32421875  8.984375 7.35416666666667  8.984375 7.390625  L 8.984375 8.2421875  C 8.984375 8.50260416666666  8.88932291666667 8.734375  8.69921875 8.9375  C 8.50911458333333 9.140625  8.26432291666667 9.29817708333333  7.96484375 9.41015625  C 7.66536458333333 9.52213541666667  7.35807291666667 9.60677083333333  7.04296875 9.6640625  C 6.72786458333333 9.72135416666667  6.421875 9.75  6.125 9.75  C 5.05729166666667 9.75  4.16536458333333 9.38802083333333  3.44921875 8.6640625  C 2.73307291666667 7.94010416666667  2.375 7.0390625  2.375 5.9609375  C 2.375 4.90364583333333  2.72916666666667 4.02083333333333  3.4375 3.3125  C 4.14583333333333 2.60416666666667  5.02864583333333 2.25  6.0859375 2.25  C 6.26302083333333 2.25  6.45963541666667 2.26171875  6.67578125 2.28515625  C 6.89192708333333 2.30859375  7.13411458333333 2.35546875  7.40234375 2.42578125  C 7.67057291666667 2.49609375  7.91145833333333 2.58463541666667  8.125 2.69140625  C 8.33854166666667 2.79817708333333  8.51822916666667 2.9453125  8.6640625 3.1328125  C 8.80989583333333 3.3203125  8.8828125 3.53125  8.8828125 3.765625  L 8.8828125 4.6171875  C 8.8828125 4.70052083333333  8.84114583333333 4.7421875  8.7578125 4.7421875  L 7.8359375 4.7421875  C 7.75260416666667 4.7421875  7.7109375 4.70052083333333  7.7109375 4.6171875  L 7.7109375 4.0703125  C 7.7109375 3.84635416666667  7.54036458333333 3.67057291666667  7.19921875 3.54296875  C 6.85807291666667 3.41536458333333  6.5 3.3515625  6.125 3.3515625  C 5.39583333333333 3.3515625  4.80078125 3.58984375  4.33984375 4.06640625  C 3.87890625 4.54296875  3.6484375 5.16145833333333  3.6484375 5.921875  C 3.6484375 6.70833333333333  3.88671875 7.35807291666667  4.36328125 7.87109375  C 4.83984375 8.38411458333333  5.44791666666667 8.640625  6.1875 8.640625  C 6.54166666666667 8.640625  6.90104166666667 8.578125  7.265625 8.453125  C 7.63020833333333 8.328125  7.8125 8.15625  7.8125 7.9375  L 7.8125 7.390625  C 7.8125 7.35416666666667  7.82421875 7.32421875  7.84765625 7.30078125  C 7.87109375 7.27734375  7.8984375 7.265625  7.9296875 7.265625  L 8.859375 7.265625  C 8.890625 7.265625  8.91927083333333 7.27734375  8.9453125 7.30078125  Z M 7.94140625 1.3984375  C 7.32421875 1.1328125  6.67708333333333 1  6 1  C 5.32291666666667 1  4.67578125 1.1328125  4.05859375 1.3984375  C 3.44140625 1.6640625  2.91015625 2.01953125  2.46484375 2.46484375  C 2.01953125 2.91015625  1.6640625 3.44140625  1.3984375 4.05859375  C 1.1328125 4.67578125  1 5.32291666666667  1 6  C 1 6.67708333333333  1.1328125 7.32421875  1.3984375 7.94140625  C 1.6640625 8.55859375  2.01953125 9.08984375  2.46484375 9.53515625  C 2.91015625 9.98046875  3.44140625 10.3359375  4.05859375 10.6015625  C 4.67578125 10.8671875  5.32291666666667 11  6 11  C 6.67708333333333 11  7.32421875 10.8671875  7.94140625 10.6015625  C 8.55859375 10.3359375  9.08984375 9.98046875  9.53515625 9.53515625  C 9.98046875 9.08984375  10.3359375 8.55859375  10.6015625 7.94140625  C 10.8671875 7.32421875  11 6.67708333333333  11 6  C 11 5.32291666666667  10.8671875 4.67578125  10.6015625 4.05859375  C 10.3359375 3.44140625  9.98046875 2.91015625  9.53515625 2.46484375  C 9.08984375 2.01953125  8.55859375 1.6640625  7.94140625 1.3984375  Z M 11.1953125 2.98828125  C 11.7317708333333 3.90755208333333  12 4.91145833333333  12 6  C 12 7.08854166666667  11.7317708333333 8.09244791666666  11.1953125 9.01171875  C 10.6588541666667 9.93098958333333  9.93098958333333 10.6588541666667  9.01171875 11.1953125  C 8.09244791666667 11.7317708333333  7.08854166666667 12  6 12  C 4.91145833333333 12  3.90755208333333 11.7317708333333  2.98828125 11.1953125  C 2.06901041666667 10.6588541666667  1.34114583333333 9.93098958333333  0.8046875 9.01171875  C 0.268229166666667 8.09244791666666  0 7.08854166666667  0 6  C 0 4.91145833333333  0.268229166666667 3.90755208333333  0.8046875 2.98828125  C 1.34114583333333 2.06901041666667  2.06901041666667 1.34114583333333  2.98828125 0.8046875  C 3.90755208333333 0.268229166666666  4.91145833333333 0  6 0  C 7.08854166666667 0  8.09244791666667 0.268229166666666  9.01171875 0.8046875  C 9.93098958333333 1.34114583333333  10.6588541666667 2.06901041666667  11.1953125 2.98828125  Z " fill-rule="nonzero" fill="#000000" stroke="none" transform="matrix(1 0 0 1 80 3105 )" />
  </g>
</svg>