<?xml version="1.0" encoding="utf-8"?>
<svg version="1.1" xmlns:xlink="http://www.w3.org/1999/xlink" width="12px" height="24px" xmlns="http://www.w3.org/2000/svg">
  <g transform="matrix(1 0 0 1 -599 -5037 )">
    <path d="M 8.83333333333333 0  C 10.1944444444444 0  11.25 0.0576923076923075  12 0.173076923076922  L 12 3.98076923076923  L 9.81944444444444 3.98076923076923  C 9.02314814814815 3.98076923076923  8.48611111111111 4.15384615384616  8.20833333333333 4.5  C 7.93055555555556 4.84615384615384  7.79166666666667 5.36538461538462  7.79166666666667 6.05769230769231  L 7.79166666666667 8.78365384615384  L 11.8611111111111 8.78365384615384  L 11.3194444444444 13.0528846153846  L 7.79166666666667 13.0528846153846  L 7.79166666666667 24  L 3.54166666666667 24  L 3.54166666666667 13.0528846153846  L 0 13.0528846153846  L 0 8.78365384615384  L 3.54166666666667 8.78365384615384  L 3.54166666666667 5.63942307692308  C 3.54166666666667 3.85096153846154  4.02314814814815 2.46394230769231  4.98611111111111 1.47836538461539  C 5.94907407407407 0.492788461538463  7.23148148148148 0  8.83333333333333 0  Z " fill-rule="nonzero" fill="#000000" stroke="none" transform="matrix(1 0 0 1 599 5037 )" />
  </g>
</svg>