<?xml version="1.0" encoding="utf-8"?>
<svg version="1.1" xmlns:xlink="http://www.w3.org/1999/xlink" width="22px" height="17px" xmlns="http://www.w3.org/2000/svg">
  <g transform="matrix(1 0 0 1 -649 -5040 )">
    <path d="M 19.4035532994924 2.6828125  C 20.2690355329949 2.59427083333333  21.1345177664975 2.37291666666666  22 2.01875  C 21.3764805414552 2.88645833333333  20.6226734348562 3.62578125  19.738578680203 4.23671875  C 19.7478849407783 4.36067708333333  19.752538071066 4.54661458333333  19.752538071066 4.79453125  C 19.752538071066 5.94557291666666  19.5757191201354 7.09440104166667  19.2220812182741 8.241015625  C 18.8684433164129 9.38763020833333  18.3310067681895 10.4877604166667  17.6097715736041 11.54140625  C 16.8885363790186 12.5950520833333  16.0300338409475 13.526953125  15.0342639593909 14.337109375  C 14.0384940778342 15.147265625  12.837986463621 15.7936197916667  11.4327411167513 16.276171875  C 10.0274957698816 16.7587239583333  8.52453468697124 17  6.9238578680203 17  C 4.40186125211506 17  2.09390862944162 16.3580729166667  0 15.07421875  C 0.325719120135364 15.1096354166667  0.688663282571912 15.12734375  1.08883248730964 15.12734375  C 3.18274111675127 15.12734375  5.04864636209814 14.51640625  6.68654822335025 13.29453125  C 5.70939086294416 13.2768229166667  4.83460236886633 12.9912760416667  4.06218274111675 12.437890625  C 3.28976311336717 11.8845052083333  2.7593062605753 11.1783854166667  2.47081218274112 10.31953125  C 2.77791878172589 10.3638020833333  3.06175972927242 10.3859375  3.32233502538071 10.3859375  C 3.72250423011844 10.3859375  4.11802030456853 10.3372395833333  4.50888324873096 10.23984375  C 3.4665820642978 10.0361979166667  2.60342639593909 9.542578125  1.91941624365482 8.758984375  C 1.23540609137056 7.975390625  0.893401015228427 7.065625  0.893401015228426 6.0296875  L 0.893401015228426 5.9765625  C 1.52622673434856 6.31302083333333  2.20558375634518 6.49453125  2.93147208121827 6.52109375  C 2.31725888324873 6.13151041666667  1.82868020304569 5.62239583333333  1.46573604060914 4.99375  C 1.10279187817259 4.36510416666666  0.921319796954315 3.68333333333333  0.921319796954315 2.9484375  C 0.921319796954315 2.16927083333333  1.12605752961083 1.44765625  1.53553299492386 0.783593750000001  C 2.66159052453469 2.10286458333333  4.03193739424704 3.15872395833333  5.64657360406091 3.951171875  C 7.26120981387479 4.74361979166667  8.98984771573604 5.18411458333333  10.8324873096447 5.27265625  C 10.7580372250423 4.93619791666667  10.7208121827411 4.60859375  10.7208121827411 4.28984375  C 10.7208121827411 3.10338541666666  11.1605329949239 2.091796875  12.0399746192893 1.255078125  C 12.9194162436548 0.418359375000001  13.9826565143824 0  15.2296954314721 0  C 16.5325719120135 0  17.6307106598985 0.451562500000001  18.5241116751269 1.3546875  C 19.5384940778342 1.16875  20.492385786802 0.8234375  21.3857868020305 0.318750000000001  C 21.0414551607445 1.33697916666666  20.3807106598985 2.125  19.4035532994924 2.6828125  Z " fill-rule="nonzero" fill="#000000" stroke="none" transform="matrix(1 0 0 1 649 5040 )" />
  </g>
</svg>