<?xml version="1.0" encoding="utf-8"?>
<svg version="1.1" xmlns:xlink="http://www.w3.org/1999/xlink" width="17px" height="13px" xmlns="http://www.w3.org/2000/svg">
  <g transform="matrix(1 0 0 1 -1210 -3104 )">
    <path d="M 14.993654822335 2.0515625  C 15.6624365482234 1.98385416666667  16.3312182741117 1.81458333333333  17 1.54375  C 16.5181895093063 2.20729166666667  15.9357021996616 2.77265625  15.252538071066 3.23984375  C 15.2597292724196 3.33463541666667  15.2633248730964 3.47682291666667  15.2633248730964 3.66640625  C 15.2633248730964 4.54661458333333  15.1266920473773 5.42513020833333  14.8534263959391 6.301953125  C 14.5801607445008 7.17877604166667  14.1648688663283 8.02005208333333  13.6075507614213 8.82578125  C 13.0502326565144 9.63151041666667  12.3868443316413 10.344140625  11.617385786802 10.963671875  C 10.8479272419628 11.583203125  9.92026226734349 12.0774739583333  8.83439086294416 12.446484375  C 7.74851945854484 12.8154947916667  6.58714043993232 13  5.3502538071066 13  C 3.40143824027073 13  1.61802030456853 12.5091145833333  0 11.52734375  C 0.251692047377327 11.5544270833333  0.532148900169205 11.56796875  0.841370558375635 11.56796875  C 2.45939086294416 11.56796875  3.90122673434856 11.10078125  5.16687817258883 10.16640625  C 4.41180203045685 10.1528645833333  3.73582910321489 9.93450520833333  3.13895939086294 9.511328125  C 2.542089678511 9.08815104166666  2.13219120135364 8.54817708333333  1.90926395939086 7.89140625  C 2.14657360406091 7.92526041666667  2.36590524534687 7.9421875  2.56725888324873 7.9421875  C 2.87648054145516 7.9421875  3.18210659898477 7.90494791666667  3.48413705583756 7.83046875  C 2.67872250423012 7.67473958333333  2.0117385786802 7.297265625  1.48318527918782 6.698046875  C 0.954631979695431 6.098828125  0.690355329949239 5.403125  0.690355329949239 4.6109375  L 0.690355329949239 4.5703125  C 1.17935702199662 4.82760416666667  1.70431472081218 4.96640625  2.26522842639594 4.98671875  C 1.79060913705584 4.68880208333333  1.41307106598985 4.29947916666667  1.13261421319797 3.81875  C 0.852157360406091 3.33802083333333  0.711928934010152 2.81666666666667  0.711928934010152 2.2546875  C 0.711928934010152 1.65885416666667  0.870135363790186 1.10703125  1.18654822335025 0.599218750000001  C 2.05668358714044 1.60807291666667  3.11558798646362 2.41549479166667  4.3632614213198 3.021484375  C 5.61093485617597 3.62747395833333  6.94670050761421 3.96432291666667  8.37055837563452 4.03203125  C 8.31302876480541 3.77473958333333  8.28426395939086 3.52421875  8.28426395939086 3.28046875  C 8.28426395939086 2.37317708333333  8.62404822335025 1.599609375  9.30361675126903 0.959765625  C 9.98318527918782 0.319921875000001  10.8047800338409 0  11.7684010152284 0  C 12.7751692047377 0  13.623730964467 0.345312500000001  14.3140862944162 1.0359375  C 15.0979272419628 0.89375  15.8350253807107 0.6296875  16.5253807106599 0.243750000000001  C 16.2593062605753 1.02239583333333  15.748730964467 1.625  14.993654822335 2.0515625  Z " fill-rule="nonzero" fill="#797979" stroke="none" transform="matrix(1 0 0 1 1210 3104 )" />
  </g>
</svg>