<?xml version="1.0" encoding="utf-8"?>
<svg version="1.1" xmlns:xlink="http://www.w3.org/1999/xlink" width="22px" height="22px" xmlns="http://www.w3.org/2000/svg">
  <g transform="matrix(1 0 0 1 -703 -5038 )">
    <path d="M 13.5924479166667 13.5924479166667  C 14.30859375 12.8763020833333  14.6666666666667 12.0121527777778  14.6666666666667 11  C 14.6666666666667 9.98784722222222  14.30859375 9.12369791666667  13.5924479166667 8.40755208333333  C 12.8763020833333 7.69140625  12.0121527777778 7.33333333333333  11 7.33333333333333  C 9.98784722222222 7.33333333333333  9.12369791666667 7.69140625  8.40755208333333 8.40755208333333  C 7.69140625 9.12369791666667  7.33333333333333 9.98784722222222  7.33333333333333 11  C 7.33333333333333 12.0121527777778  7.69140625 12.8763020833333  8.40755208333333 13.5924479166667  C 9.12369791666667 14.30859375  9.98784722222222 14.6666666666667  11 14.6666666666667  C 12.0121527777778 14.6666666666667  12.8763020833333 14.30859375  13.5924479166667 13.5924479166667  Z M 14.99609375 7.00390625  C 16.0941840277778 8.10199652777778  16.6432291666667 9.43402777777778  16.6432291666667 11  C 16.6432291666667 12.5659722222222  16.0941840277778 13.8980034722222  14.99609375 14.99609375  C 13.8980034722222 16.0941840277778  12.5659722222222 16.6432291666667  11 16.6432291666667  C 9.43402777777778 16.6432291666667  8.10199652777778 16.0941840277778  7.00390625 14.99609375  C 5.90581597222222 13.8980034722222  5.35677083333333 12.5659722222222  5.35677083333333 11  C 5.35677083333333 9.43402777777778  5.90581597222222 8.10199652777778  7.00390625 7.00390625  C 8.10199652777778 5.90581597222222  9.43402777777778 5.35677083333333  11 5.35677083333333  C 12.5659722222222 5.35677083333333  13.8980034722222 5.90581597222222  14.99609375 7.00390625  Z M 17.8033854166667 4.19661458333333  C 18.0611979166667 4.45442708333333  18.1901041666667 4.76475694444444  18.1901041666667 5.12760416666667  C 18.1901041666667 5.49045138888889  18.0611979166667 5.80078125  17.8033854166667 6.05859375  C 17.5455729166667 6.31640625  17.2352430555556 6.4453125  16.8723958333333 6.4453125  C 16.5095486111111 6.4453125  16.19921875 6.31640625  15.94140625 6.05859375  C 15.68359375 5.80078125  15.5546875 5.49045138888889  15.5546875 5.12760416666667  C 15.5546875 4.76475694444444  15.68359375 4.45442708333333  15.94140625 4.19661458333333  C 16.19921875 3.93880208333333  16.5095486111111 3.80989583333333  16.8723958333333 3.80989583333333  C 17.2352430555556 3.80989583333333  17.5455729166667 3.93880208333333  17.8033854166667 4.19661458333333  Z M 12.095703125 1.96940104166667  C 11.4320746527778 1.97417534722222  11.0668402777778 1.9765625  11 1.9765625  C 10.9331597222222 1.9765625  10.5679253472222 1.97417534722222  9.904296875 1.96940104166667  C 9.24066840277778 1.96462673611111  8.73697916666667 1.96462673611111  8.39322916666667 1.96940104166667  C 8.04947916666667 1.97417534722222  7.58875868055556 1.98849826388889  7.01106770833333 2.01236979166667  C 6.43337673611111 2.03624131944444  5.94162326388889 2.083984375  5.53580729166667 2.15559895833333  C 5.12999131944444 2.22721354166667  4.78862847222222 2.31553819444444  4.51171875 2.42057291666667  C 4.03428819444444 2.61154513888889  3.61414930555556 2.88845486111111  3.25130208333333 3.25130208333333  C 2.88845486111111 3.61414930555555  2.61154513888889 4.03428819444444  2.42057291666667 4.51171875  C 2.31553819444444 4.78862847222222  2.22721354166667 5.12999131944444  2.15559895833333 5.53580729166667  C 2.083984375 5.94162326388889  2.03624131944444 6.43337673611111  2.01236979166667 7.01106770833333  C 1.98849826388889 7.58875868055555  1.97417534722222 8.04947916666667  1.96940104166667 8.39322916666667  C 1.96462673611111 8.73697916666667  1.96462673611111 9.24066840277778  1.96940104166667 9.904296875  C 1.97417534722222 10.5679253472222  1.9765625 10.9331597222222  1.9765625 11  C 1.9765625 11.0668402777778  1.97417534722222 11.4320746527778  1.96940104166667 12.095703125  C 1.96462673611111 12.7593315972222  1.96462673611111 13.2630208333333  1.96940104166667 13.6067708333333  C 1.97417534722222 13.9505208333333  1.98849826388889 14.4112413194444  2.01236979166667 14.9889322916667  C 2.03624131944444 15.5666232638889  2.083984375 16.0583767361111  2.15559895833333 16.4641927083333  C 2.22721354166667 16.8700086805556  2.31553819444444 17.2113715277778  2.42057291666667 17.48828125  C 2.61154513888889 17.9657118055556  2.88845486111111 18.3858506944444  3.25130208333333 18.7486979166667  C 3.61414930555556 19.1115451388889  4.03428819444444 19.3884548611111  4.51171875 19.5794270833333  C 4.78862847222222 19.6844618055556  5.12999131944444 19.7727864583333  5.53580729166667 19.8444010416667  C 5.94162326388889 19.916015625  6.43337673611111 19.9637586805556  7.01106770833333 19.9876302083333  C 7.58875868055556 20.0115017361111  8.04947916666667 20.0258246527778  8.39322916666667 20.0305989583333  C 8.73697916666667 20.0353732638889  9.24066840277778 20.0353732638889  9.904296875 20.0305989583333  C 10.5679253472222 20.0258246527778  10.9331597222222 20.0234375  11 20.0234375  C 11.0668402777778 20.0234375  11.4320746527778 20.0258246527778  12.095703125 20.0305989583333  C 12.7593315972222 20.0353732638889  13.2630208333333 20.0353732638889  13.6067708333333 20.0305989583333  C 13.9505208333333 20.0258246527778  14.4112413194444 20.0115017361111  14.9889322916667 19.9876302083333  C 15.5666232638889 19.9637586805556  16.0583767361111 19.916015625  16.4641927083333 19.8444010416667  C 16.8700086805556 19.7727864583333  17.2113715277778 19.6844618055556  17.48828125 19.5794270833333  C 17.9657118055556 19.3884548611111  18.3858506944444 19.1115451388889  18.7486979166667 18.7486979166667  C 19.1115451388889 18.3858506944444  19.3884548611111 17.9657118055556  19.5794270833333 17.48828125  C 19.6844618055556 17.2113715277778  19.7727864583333 16.8700086805556  19.8444010416667 16.4641927083333  C 19.916015625 16.0583767361111  19.9637586805556 15.5666232638889  19.9876302083333 14.9889322916667  C 20.0115017361111 14.4112413194444  20.0258246527778 13.9505208333333  20.0305989583333 13.6067708333333  C 20.0353732638889 13.2630208333333  20.0353732638889 12.7593315972222  20.0305989583333 12.095703125  C 20.0258246527778 11.4320746527778  20.0234375 11.0668402777778  20.0234375 11  C 20.0234375 10.9331597222222  20.0258246527778 10.5679253472222  20.0305989583333 9.904296875  C 20.0353732638889 9.24066840277778  20.0353732638889 8.73697916666667  20.0305989583333 8.39322916666667  C 20.0258246527778 8.04947916666667  20.0115017361111 7.58875868055555  19.9876302083333 7.01106770833333  C 19.9637586805556 6.43337673611111  19.916015625 5.94162326388889  19.8444010416667 5.53580729166667  C 19.7727864583333 5.12999131944444  19.6844618055556 4.78862847222222  19.5794270833333 4.51171875  C 19.3884548611111 4.03428819444444  19.1115451388889 3.61414930555555  18.7486979166667 3.25130208333333  C 18.3858506944444 2.88845486111111  17.9657118055556 2.61154513888889  17.48828125 2.42057291666667  C 17.2113715277778 2.31553819444444  16.8700086805556 2.22721354166667  16.4641927083333 2.15559895833333  C 16.0583767361111 2.083984375  15.5666232638889 2.03624131944444  14.9889322916667 2.01236979166667  C 14.4112413194444 1.98849826388889  13.9505208333333 1.97417534722222  13.6067708333333 1.96940104166667  C 13.2630208333333 1.96462673611111  12.7593315972222 1.96462673611111  12.095703125 1.96940104166667  Z M 21.9283854166667 6.45963541666667  C 21.9761284722222 7.29991319444444  22 8.81336805555555  22 11  C 22 13.1866319444444  21.9761284722222 14.7000868055556  21.9283854166667 15.5403645833333  C 21.8328993055556 17.5264756944444  21.2408854166667 19.0638020833333  20.15234375 20.15234375  C 19.0638020833333 21.2408854166667  17.5264756944444 21.8328993055556  15.5403645833333 21.9283854166667  C 14.7000868055556 21.9761284722222  13.1866319444444 22  11 22  C 8.81336805555556 22  7.29991319444444 21.9761284722222  6.45963541666667 21.9283854166667  C 4.47352430555556 21.8328993055556  2.93619791666667 21.2408854166667  1.84765625 20.15234375  C 0.759114583333333 19.0638020833333  0.167100694444444 17.5264756944444  0.0716145833333333 15.5403645833333  C 0.0238715277777778 14.7000868055556  0 13.1866319444444  0 11  C 0 8.81336805555555  0.0238715277777778 7.29991319444444  0.0716145833333333 6.45963541666667  C 0.167100694444444 4.47352430555555  0.759114583333333 2.93619791666667  1.84765625 1.84765625  C 2.93619791666667 0.759114583333334  4.47352430555556 0.167100694444443  6.45963541666667 0.0716145833333341  C 7.29991319444444 0.0238715277777748  8.81336805555556 0  11 0  C 13.1866319444444 0  14.7000868055556 0.0238715277777748  15.5403645833333 0.0716145833333341  C 17.5264756944444 0.167100694444443  19.0638020833333 0.759114583333334  20.15234375 1.84765625  C 21.2408854166667 2.93619791666667  21.8328993055556 4.47352430555555  21.9283854166667 6.45963541666667  Z " fill-rule="nonzero" fill="#797979" stroke="none" transform="matrix(1 0 0 1 703 5038 )" />
  </g>
</svg>