<?xml version="1.0" encoding="utf-8"?>
<svg version="1.1" xmlns:xlink="http://www.w3.org/1999/xlink" width="18px" height="18px" xmlns="http://www.w3.org/2000/svg">
  <g transform="matrix(1 0 0 1 -1251 -3101 )">
    <path d="M 11.12109375 11.12109375  C 11.70703125 10.53515625  12 9.828125  12 9  C 12 8.171875  11.70703125 7.46484375  11.12109375 6.87890625  C 10.53515625 6.29296875  9.828125 6  9 6  C 8.171875 6  7.46484375 6.29296875  6.87890625 6.87890625  C 6.29296875 7.46484375  6 8.171875  6 9  C 6 9.828125  6.29296875 10.53515625  6.87890625 11.12109375  C 7.46484375 11.70703125  8.171875 12  9 12  C 9.828125 12  10.53515625 11.70703125  11.12109375 11.12109375  Z M 12.26953125 5.73046875  C 13.16796875 6.62890625  13.6171875 7.71875  13.6171875 9  C 13.6171875 10.28125  13.16796875 11.37109375  12.26953125 12.26953125  C 11.37109375 13.16796875  10.28125 13.6171875  9 13.6171875  C 7.71875 13.6171875  6.62890625 13.16796875  5.73046875 12.26953125  C 4.83203125 11.37109375  4.3828125 10.28125  4.3828125 9  C 4.3828125 7.71875  4.83203125 6.62890625  5.73046875 5.73046875  C 6.62890625 4.83203125  7.71875 4.3828125  9 4.3828125  C 10.28125 4.3828125  11.37109375 4.83203125  12.26953125 5.73046875  Z M 14.56640625 3.43359375  C 14.77734375 3.64453125  14.8828125 3.8984375  14.8828125 4.1953125  C 14.8828125 4.4921875  14.77734375 4.74609375  14.56640625 4.95703125  C 14.35546875 5.16796875  14.1015625 5.2734375  13.8046875 5.2734375  C 13.5078125 5.2734375  13.25390625 5.16796875  13.04296875 4.95703125  C 12.83203125 4.74609375  12.7265625 4.4921875  12.7265625 4.1953125  C 12.7265625 3.8984375  12.83203125 3.64453125  13.04296875 3.43359375  C 13.25390625 3.22265625  13.5078125 3.1171875  13.8046875 3.1171875  C 14.1015625 3.1171875  14.35546875 3.22265625  14.56640625 3.43359375  Z M 9.896484375 1.611328125  C 9.353515625 1.615234375  9.0546875 1.6171875  9 1.6171875  C 8.9453125 1.6171875  8.646484375 1.615234375  8.103515625 1.611328125  C 7.560546875 1.607421875  7.1484375 1.607421875  6.8671875 1.611328125  C 6.5859375 1.615234375  6.208984375 1.626953125  5.736328125 1.646484375  C 5.263671875 1.666015625  4.861328125 1.705078125  4.529296875 1.763671875  C 4.197265625 1.822265625  3.91796875 1.89453125  3.69140625 1.98046875  C 3.30078125 2.13671875  2.95703125 2.36328125  2.66015625 2.66015625  C 2.36328125 2.95703125  2.13671875 3.30078125  1.98046875 3.69140625  C 1.89453125 3.91796875  1.822265625 4.197265625  1.763671875 4.529296875  C 1.705078125 4.861328125  1.666015625 5.263671875  1.646484375 5.736328125  C 1.626953125 6.208984375  1.615234375 6.5859375  1.611328125 6.8671875  C 1.607421875 7.1484375  1.607421875 7.560546875  1.611328125 8.103515625  C 1.615234375 8.646484375  1.6171875 8.9453125  1.6171875 9  C 1.6171875 9.0546875  1.615234375 9.353515625  1.611328125 9.896484375  C 1.607421875 10.439453125  1.607421875 10.8515625  1.611328125 11.1328125  C 1.615234375 11.4140625  1.626953125 11.791015625  1.646484375 12.263671875  C 1.666015625 12.736328125  1.705078125 13.138671875  1.763671875 13.470703125  C 1.822265625 13.802734375  1.89453125 14.08203125  1.98046875 14.30859375  C 2.13671875 14.69921875  2.36328125 15.04296875  2.66015625 15.33984375  C 2.95703125 15.63671875  3.30078125 15.86328125  3.69140625 16.01953125  C 3.91796875 16.10546875  4.197265625 16.177734375  4.529296875 16.236328125  C 4.861328125 16.294921875  5.263671875 16.333984375  5.736328125 16.353515625  C 6.208984375 16.373046875  6.5859375 16.384765625  6.8671875 16.388671875  C 7.1484375 16.392578125  7.560546875 16.392578125  8.103515625 16.388671875  C 8.646484375 16.384765625  8.9453125 16.3828125  9 16.3828125  C 9.0546875 16.3828125  9.353515625 16.384765625  9.896484375 16.388671875  C 10.439453125 16.392578125  10.8515625 16.392578125  11.1328125 16.388671875  C 11.4140625 16.384765625  11.791015625 16.373046875  12.263671875 16.353515625  C 12.736328125 16.333984375  13.138671875 16.294921875  13.470703125 16.236328125  C 13.802734375 16.177734375  14.08203125 16.10546875  14.30859375 16.01953125  C 14.69921875 15.86328125  15.04296875 15.63671875  15.33984375 15.33984375  C 15.63671875 15.04296875  15.86328125 14.69921875  16.01953125 14.30859375  C 16.10546875 14.08203125  16.177734375 13.802734375  16.236328125 13.470703125  C 16.294921875 13.138671875  16.333984375 12.736328125  16.353515625 12.263671875  C 16.373046875 11.791015625  16.384765625 11.4140625  16.388671875 11.1328125  C 16.392578125 10.8515625  16.392578125 10.439453125  16.388671875 9.896484375  C 16.384765625 9.353515625  16.3828125 9.0546875  16.3828125 9  C 16.3828125 8.9453125  16.384765625 8.646484375  16.388671875 8.103515625  C 16.392578125 7.560546875  16.392578125 7.1484375  16.388671875 6.8671875  C 16.384765625 6.5859375  16.373046875 6.208984375  16.353515625 5.736328125  C 16.333984375 5.263671875  16.294921875 4.861328125  16.236328125 4.529296875  C 16.177734375 4.197265625  16.10546875 3.91796875  16.01953125 3.69140625  C 15.86328125 3.30078125  15.63671875 2.95703125  15.33984375 2.66015625  C 15.04296875 2.36328125  14.69921875 2.13671875  14.30859375 1.98046875  C 14.08203125 1.89453125  13.802734375 1.822265625  13.470703125 1.763671875  C 13.138671875 1.705078125  12.736328125 1.666015625  12.263671875 1.646484375  C 11.791015625 1.626953125  11.4140625 1.615234375  11.1328125 1.611328125  C 10.8515625 1.607421875  10.439453125 1.607421875  9.896484375 1.611328125  Z M 17.94140625 5.28515625  C 17.98046875 5.97265625  18 7.2109375  18 9  C 18 10.7890625  17.98046875 12.02734375  17.94140625 12.71484375  C 17.86328125 14.33984375  17.37890625 15.59765625  16.48828125 16.48828125  C 15.59765625 17.37890625  14.33984375 17.86328125  12.71484375 17.94140625  C 12.02734375 17.98046875  10.7890625 18  9 18  C 7.2109375 18  5.97265625 17.98046875  5.28515625 17.94140625  C 3.66015625 17.86328125  2.40234375 17.37890625  1.51171875 16.48828125  C 0.62109375 15.59765625  0.13671875 14.33984375  0.05859375 12.71484375  C 0.01953125 12.02734375  0 10.7890625  0 9  C 0 7.2109375  0.01953125 5.97265625  0.05859375 5.28515625  C 0.13671875 3.66015625  0.62109375 2.40234375  1.51171875 1.51171875  C 2.40234375 0.621093750000001  3.66015625 0.136718749999999  5.28515625 0.0585937500000007  C 5.97265625 0.0195312499999976  7.2109375 0  9 0  C 10.7890625 0  12.02734375 0.0195312499999976  12.71484375 0.0585937500000007  C 14.33984375 0.136718749999999  15.59765625 0.621093750000001  16.48828125 1.51171875  C 17.37890625 2.40234375  17.86328125 3.66015625  17.94140625 5.28515625  Z " fill-rule="nonzero" fill="#000000" stroke="none" transform="matrix(1 0 0 1 1251 3101 )" />
  </g>
</svg>