<?xml version="1.0" encoding="utf-8"?>
<svg version="1.1" xmlns:xlink="http://www.w3.org/1999/xlink" width="267px" height="60px" xmlns="http://www.w3.org/2000/svg">
  <g transform="matrix(1 0 0 1 -252 -143 )">
    <path d="M 252.5 173  A 29.5 29.5 0 0 1 282 143.5 L 489 143.5  A 29.5 29.5 0 0 1 518.5 173 A 29.5 29.5 0 0 1 489 202.5 L 282 202.5  A 29.5 29.5 0 0 1 252.5 173 Z " fill-rule="nonzero" fill="#ffffff" stroke="none" />
    <path d="M 252.5 173  A 29.5 29.5 0 0 1 282 143.5 L 489 143.5  A 29.5 29.5 0 0 1 518.5 173 A 29.5 29.5 0 0 1 489 202.5 L 282 202.5  A 29.5 29.5 0 0 1 252.5 173 Z " stroke-width="1" stroke="#ffffff" fill="none" />
  </g>
</svg>