<?xml version="1.0" encoding="utf-8"?>
<svg version="1.1" xmlns:xlink="http://www.w3.org/1999/xlink" width="233px" height="84px" xmlns="http://www.w3.org/2000/svg">
  <g transform="matrix(1 0 0 1 -52 -253 )">
    <path d="M 52.5 295  A 41.5 41.5 0 0 1 94 253.5 L 243 253.5  A 41.5 41.5 0 0 1 284.5 295 A 41.5 41.5 0 0 1 243 336.5 L 94 336.5  A 41.5 41.5 0 0 1 52.5 295 Z " fill-rule="nonzero" fill="#ffffff" stroke="none" />
    <path d="M 52.5 295  A 41.5 41.5 0 0 1 94 253.5 L 243 253.5  A 41.5 41.5 0 0 1 284.5 295 A 41.5 41.5 0 0 1 243 336.5 L 94 336.5  A 41.5 41.5 0 0 1 52.5 295 Z " stroke-width="1" stroke="#ffffff" fill="none" />
  </g>
</svg>