<?xml version="1.0" encoding="utf-8"?>
<svg version="1.1" xmlns:xlink="http://www.w3.org/1999/xlink" width="267px" height="60px" xmlns="http://www.w3.org/2000/svg">
  <g transform="matrix(1 0 0 1 -252 -143 )">
    <path d="M 254 173  A 28 28 0 0 1 282 145 L 489 145  A 28 28 0 0 1 517 173 A 28 28 0 0 1 489 201 L 282 201  A 28 28 0 0 1 254 173 Z " fill-rule="nonzero" fill="#cccccc" stroke="none" fill-opacity="0.662745098039216" />
    <path d="M 253 173  A 29 29 0 0 1 282 144 L 489 144  A 29 29 0 0 1 518 173 A 29 29 0 0 1 489 202 L 282 202  A 29 29 0 0 1 253 173 Z " stroke-width="2" stroke="#cccccc" fill="none" stroke-opacity="0.662745098039216" />
  </g>
</svg>