<?xml version="1.0" encoding="utf-8"?>
<svg version="1.1" xmlns:xlink="http://www.w3.org/1999/xlink" width="179px" height="60px" xmlns="http://www.w3.org/2000/svg">
  <g transform="matrix(1 0 0 1 -698 -143 )">
    <path d="M 700 173  A 28 28 0 0 1 728 145 L 847 145  A 28 28 0 0 1 875 173 A 28 28 0 0 1 847 201 L 728 201  A 28 28 0 0 1 700 173 Z " fill-rule="nonzero" fill="#cccccc" stroke="none" fill-opacity="0.662745098039216" />
    <path d="M 699 173  A 29 29 0 0 1 728 144 L 847 144  A 29 29 0 0 1 876 173 A 29 29 0 0 1 847 202 L 728 202  A 29 29 0 0 1 699 173 Z " stroke-width="2" stroke="#cccccc" fill="none" stroke-opacity="0.662745098039216" />
  </g>
</svg>