<?xml version="1.0" encoding="utf-8"?>
<svg version="1.1" xmlns:xlink="http://www.w3.org/1999/xlink" width="179px" height="79px" xmlns="http://www.w3.org/2000/svg">
  <g transform="matrix(1 0 0 1 -464 -253 )">
    <path d="M 466 292.5  A 37.5 37.5 0 0 1 503.5 255 L 603.5 255  A 37.5 37.5 0 0 1 641 292.5 A 37.5 37.5 0 0 1 603.5 330 L 503.5 330  A 37.5 37.5 0 0 1 466 292.5 Z " fill-rule="nonzero" fill="#cccccc" stroke="none" fill-opacity="0.662745098039216" />
    <path d="M 465 292.5  A 38.5 38.5 0 0 1 503.5 254 L 603.5 254  A 38.5 38.5 0 0 1 642 292.5 A 38.5 38.5 0 0 1 603.5 331 L 503.5 331  A 38.5 38.5 0 0 1 465 292.5 Z " stroke-width="2" stroke="#cccccc" fill="none" stroke-opacity="0.662745098039216" />
  </g>
</svg>