<?xml version="1.0" encoding="utf-8"?>
<svg version="1.1" xmlns:xlink="http://www.w3.org/1999/xlink" width="221px" height="79px" xmlns="http://www.w3.org/2000/svg">
  <g transform="matrix(1 0 0 1 -643 -253 )">
    <path d="M 645 292.5  A 37.5 37.5 0 0 1 682.5 255 L 824.5 255  A 37.5 37.5 0 0 1 862 292.5 A 37.5 37.5 0 0 1 824.5 330 L 682.5 330  A 37.5 37.5 0 0 1 645 292.5 Z " fill-rule="nonzero" fill="#cccccc" stroke="none" fill-opacity="0.662745098039216" />
    <path d="M 644 292.5  A 38.5 38.5 0 0 1 682.5 254 L 824.5 254  A 38.5 38.5 0 0 1 863 292.5 A 38.5 38.5 0 0 1 824.5 331 L 682.5 331  A 38.5 38.5 0 0 1 644 292.5 Z " stroke-width="2" stroke="#cccccc" fill="none" stroke-opacity="0.662745098039216" />
  </g>
</svg>