<?xml version="1.0" encoding="utf-8"?>
<svg version="1.1" xmlns:xlink="http://www.w3.org/1999/xlink" width="221px" height="60px" xmlns="http://www.w3.org/2000/svg">
  <g transform="matrix(1 0 0 1 -877 -143 )">
    <path d="M 879 173  A 28 28 0 0 1 907 145 L 1068 145  A 28 28 0 0 1 1096 173 A 28 28 0 0 1 1068 201 L 907 201  A 28 28 0 0 1 879 173 Z " fill-rule="nonzero" fill="#cccccc" stroke="none" fill-opacity="0.662745098039216" />
    <path d="M 878 173  A 29 29 0 0 1 907 144 L 1068 144  A 29 29 0 0 1 1097 173 A 29 29 0 0 1 1068 202 L 907 202  A 29 29 0 0 1 878 173 Z " stroke-width="2" stroke="#cccccc" fill="none" stroke-opacity="0.662745098039216" />
  </g>
</svg>