<?xml version="1.0" encoding="utf-8"?>
<svg version="1.1" xmlns:xlink="http://www.w3.org/1999/xlink" width="98px" height="53px" xmlns="http://www.w3.org/2000/svg">
  <g transform="matrix(1 0 0 1 -881 -87 )">
    <path d="M 883 113.5  A 24.5 24.5 0 0 1 907.5 89 L 952.5 89  A 24.5 24.5 0 0 1 977 113.5 A 24.5 24.5 0 0 1 952.5 138 L 907.5 138  A 24.5 24.5 0 0 1 883 113.5 Z " fill-rule="nonzero" fill="#cccccc" stroke="none" fill-opacity="0.662745098039216" />
    <path d="M 882 113.5  A 25.5 25.5 0 0 1 907.5 88 L 952.5 88  A 25.5 25.5 0 0 1 978 113.5 A 25.5 25.5 0 0 1 952.5 139 L 907.5 139  A 25.5 25.5 0 0 1 882 113.5 Z " stroke-width="2" stroke="#cccccc" fill="none" stroke-opacity="0.662745098039216" />
  </g>
</svg>