<?xml version="1.0" encoding="utf-8"?>
<svg version="1.1" xmlns:xlink="http://www.w3.org/1999/xlink" width="18px" height="12px" xmlns="http://www.w3.org/2000/svg">
  <g transform="matrix(1 0 0 1 -899 -108 )">
    <path d="M 17.77734375 9.778125  C 17.92578125 9.896875  18 10.0375  18 10.2  L 18 11.4  C 18 11.5625  17.92578125 11.703125  17.77734375 11.821875  C 17.62890625 11.940625  17.453125 12  17.25 12  L 0.75 12  C 0.546875 12  0.37109375 11.940625  0.22265625 11.821875  C 0.07421875 11.703125  0 11.5625  0 11.4  L 0 10.2  C 0 10.0375  0.07421875 9.896875  0.22265625 9.778125  C 0.37109375 9.659375  0.546875 9.6  0.75 9.6  L 17.25 9.6  C 17.453125 9.6  17.62890625 9.659375  17.77734375 9.778125  Z M 17.77734375 4.978125  C 17.92578125 5.096875  18 5.2375  18 5.4  L 18 6.6  C 18 6.7625  17.92578125 6.903125  17.77734375 7.021875  C 17.62890625 7.140625  17.453125 7.2  17.25 7  L 0.75 7  C 0.546875 7.2  0.37109375 7.140625  0.22265625 7.021875  C 0.07421875 6.903125  0 6.7625  0 6.6  L 0 5.4  C 0 5.2375  0.07421875 5.096875  0.22265625 4.978125  C 0.37109375 4.859375  0.546875 4.8  0.75 5  L 17.25 5  C 17.453125 4.8  17.62890625 4.859375  17.77734375 4.978125  Z M 17.77734375 0.178125000000001  C 17.92578125 0.296874999999999  18 0.437499999999999  18 0.600000000000001  L 18 1.8  C 18 1.9625  17.92578125 2.103125  17.77734375 2.221875  C 17.62890625 2.340625  17.453125 2.4  17.25 2.4  L 0.75 2.4  C 0.546875 2.4  0.37109375 2.340625  0.22265625 2.221875  C 0.07421875 2.103125  0 1.9625  0 1.8  L 0 0.600000000000001  C 0 0.437499999999999  0.07421875 0.296874999999999  0.22265625 0.178125000000001  C 0.37109375 0.0593749999999993  0.546875 0  0.75 0  L 17.25 0  C 17.453125 0  17.62890625 0.0593749999999993  17.77734375 0.178125000000001  Z " fill-rule="nonzero" fill="#717271" stroke="none" transform="matrix(1 0 0 1 899 108 )" />
  </g>
</svg>