<?xml version="1.0" encoding="utf-8"?>
<svg version="1.1" xmlns:xlink="http://www.w3.org/1999/xlink" width="77px" height="42px" xmlns="http://www.w3.org/2000/svg">
  <g transform="matrix(1 0 0 1 -1192 -78 )">
    <path d="M 1194 99  A 19 19 0 0 1 1213 80 L 1248 80  A 19 19 0 0 1 1267 99 A 19 19 0 0 1 1248 118 L 1213 118  A 19 19 0 0 1 1194 99 Z " fill-rule="nonzero" fill="#cccccc" stroke="none" fill-opacity="0.662745098039216" />
    <path d="M 1193 99  A 20 20 0 0 1 1213 79 L 1248 79  A 20 20 0 0 1 1268 99 A 20 20 0 0 1 1248 119 L 1213 119  A 20 20 0 0 1 1193 99 Z " stroke-width="2" stroke="#cccccc" fill="none" stroke-opacity="0.662745098039216" />
  </g>
</svg>