<?xml version="1.0" encoding="utf-8"?>
<svg version="1.1" xmlns:xlink="http://www.w3.org/1999/xlink" width="14px" height="12px" xmlns="http://www.w3.org/2000/svg">
  <g transform="matrix(1 0 0 1 -1206 -93 )">
    <path d="M 13.8268229166667 9.778125  C 13.9422743055556 9.896875  14 10.0375  14 10.2  L 14 11.4  C 14 11.5625  13.9422743055556 11.703125  13.8268229166667 11.821875  C 13.7113715277778 11.940625  13.5746527777778 12  13.4166666666667 12  L 0.583333333333333 12  C 0.425347222222222 12  0.288628472222222 11.940625  0.173177083333333 11.821875  C 0.0577256944444444 11.703125  0 11.5625  0 11.4  L 0 10.2  C 0 10.0375  0.0577256944444444 9.896875  0.173177083333333 9.778125  C 0.288628472222222 9.659375  0.425347222222222 9.6  0.583333333333333 9.6  L 13.4166666666667 9.6  C 13.5746527777778 9.6  13.7113715277778 9.659375  13.8268229166667 9.778125  Z M 13.8268229166667 4.978125  C 13.9422743055556 5.096875  14 5.2375  14 5.4  L 14 6.6  C 14 6.7625  13.9422743055556 6.903125  13.8268229166667 7.021875  C 13.7113715277778 7.140625  13.5746527777778 7.2  13.4166666666667 7  L 0.583333333333333 7  C 0.425347222222222 7.2  0.288628472222222 7.140625  0.173177083333333 7.021875  C 0.0577256944444444 6.903125  0 6.7625  0 6.6  L 0 5.4  C 0 5.2375  0.0577256944444444 5.096875  0.173177083333333 4.978125  C 0.288628472222222 4.859375  0.425347222222222 4.8  0.583333333333333 5  L 13.4166666666667 5  C 13.5746527777778 4.8  13.7113715277778 4.859375  13.8268229166667 4.978125  Z M 13.8268229166667 0.178125000000001  C 13.9422743055556 0.296874999999999  14 0.437499999999999  14 0.600000000000001  L 14 1.8  C 14 1.9625  13.9422743055556 2.103125  13.8268229166667 2.221875  C 13.7113715277778 2.340625  13.5746527777778 2.4  13.4166666666667 2.4  L 0.583333333333333 2.4  C 0.425347222222222 2.4  0.288628472222222 2.340625  0.173177083333333 2.221875  C 0.0577256944444444 2.103125  0 1.9625  0 1.8  L 0 0.600000000000001  C 0 0.437499999999999  0.0577256944444444 0.296874999999999  0.173177083333333 0.178125000000001  C 0.288628472222222 0.0593749999999993  0.425347222222222 0  0.583333333333333 0  L 13.4166666666667 0  C 13.5746527777778 0  13.7113715277778 0.0593749999999993  13.8268229166667 0.178125000000001  Z " fill-rule="nonzero" fill="#000000" stroke="none" transform="matrix(1 0 0 1 1206 93 )" />
  </g>
</svg>